<svg width="96" height="96" xmlns="http://www.w3.org/2000/svg" xmlns:xlink="http://www.w3.org/1999/xlink" xml:space="preserve" overflow="hidden"><g transform="translate(-942 -147)"><path d="M1020 167 1003 167 1003 162C1003 158.1 999.9 155 996 155L984 155C980.1 155 977 158.1 977 162L977 167 960 167C957.8 167 956 168.8 956 171L956 175 1024 175 1024 171C1024 168.8 1022.2 167 1020 167ZM983 162C983 161.4 983.4 161 984 161L996 161C996.6 161 997 161.4 997 162L997 167 983 167 983 162Z"/><path d="M962 231C962 233.2 963.8 235 966 235L1014 235C1016.2 235 1018 233.2 1018 231L1018 179 962 179 962 231ZM1003 185 1009 185 1009 229 1003 229 1003 185ZM987 185 993 185 993 229 987 229 987 185ZM971 185 977 185 977 229 971 229 971 185Z"/></g></svg>