<svg width="96" height="96" xmlns="http://www.w3.org/2000/svg" xmlns:xlink="http://www.w3.org/1999/xlink" xml:space="preserve" overflow="hidden"><g transform="translate(-907 -397)"><path d="M995.1 406.4C993 404.3 990.6 404.9 989.7 405.8L949.3 443.2 940.3 454.3C939.7 455.4 940.3 457.3 941.7 458.7L942.6 459.6C944 461 945.9 461.7 947 461L958.1 452 995.7 411.6C996.7 410.5 997.1 408.5 995.1 406.4Z"/><path d="M923.3 462.7C920.2 465.9 921.1 469.7 920.6 473.4 920 479.8 914.9 481.9 913.5 482.4 921.7 488.5 932.6 484 938.6 478 942.8 473.8 942.8 466.9 938.6 462.7 934.4 458.5 927.5 458.5 923.3 462.7Z"/></g></svg>