<svg width="96" height="96" xmlns="http://www.w3.org/2000/svg" xmlns:xlink="http://www.w3.org/1999/xlink" xml:space="preserve" overflow="hidden"><g transform="translate(-592 -312)"><path d="M664.4 315.1 595.1 384.4 615.6 404.9 684.8 335.7 664.4 315.1ZM665.8 346.2 658 354 651.8 347.8 649 350.6 655.2 356.8 647.4 364.6 641.2 358.4 638.4 361.2 644.6 367.4 636.8 375.2 630.6 369 627.8 371.8 634 378 626.2 385.8 620 379.6 617.2 382.4 623.4 388.6 615.7 396.3 603.7 384.3 664.4 323.6 676.4 335.6 668.7 343.3 662.5 337.1 659.6 340 665.8 346.2Z"/></g></svg>