<svg width="96" height="96" xmlns="http://www.w3.org/2000/svg" xmlns:xlink="http://www.w3.org/1999/xlink" xml:space="preserve" overflow="hidden"><g transform="translate(-424 -275)"><path d="M470 305.1 470 309.1C470.7 309.1 471.3 309 472 309 472.7 309 473.3 309 474 309.1L474 305.1C477.9 305.3 481.6 306.1 485 307.4L483.5 311C484.8 311.5 486 312 487.2 312.6L488.7 308.9C490.6 309.8 492.3 310.9 494 312.1L498.3 307.8C491 302.3 481.9 299 472 299 447.7 299 428 318.7 428 343L428 347 434 347 434 343C434 338.9 434.7 334.9 435.9 331.2L439.6 332.7C440 331.4 440.5 330.2 441 329L437.3 327.5C438.8 324.1 440.9 320.9 443.3 318.2L446.1 321C447 320 447.9 319 448.9 318.1L446.1 315.3C448.8 312.8 451.9 310.6 455.3 308.9L456.8 312.6C458 312 459.2 311.5 460.5 311L459 307.3C462.4 306 466.1 305.3 470 305.1Z"/><path d="M508.1 317.8 503.8 322.1C504.9 323.8 505.9 325.6 506.7 327.4L503 329C503.5 330.2 504 331.5 504.4 332.7L508.1 331.2C509.3 334.9 510 338.9 510 343L510 347 516 347 516 343C516 333.6 513.1 325 508.1 317.8Z"/><path d="M469.2 341.2C469 341.3 468.9 341.5 468.7 341.7 467.3 343.4 467.5 345.9 469.2 347.4 470.9 348.8 473.4 348.6 474.9 346.9L506 310 469.2 341.2Z"/></g></svg>