<svg width="198" height="160" xmlns="http://www.w3.org/2000/svg" xmlns:xlink="http://www.w3.org/1999/xlink" xml:space="preserve" overflow="hidden"><defs><clipPath id="clip0"><rect x="2530" y="1348" width="198" height="160"/></clipPath></defs><g clip-path="url(#clip0)" transform="translate(-2530 -1348)"><path d="M2530 1487.01 2530 1507.66C2530.34 1507.66 2531.03 1507.66 2531.72 1507.66 2573.66 1509.03 2597.72 1481.51 2603.56 1425.76 2609.41 1368.3 2623.5 1368.3 2629 1368.3 2634.5 1368.3 2648.59 1368.3 2654.44 1425.76 2659.94 1480.13 2682.97 1508 2723.19 1508 2724.22 1508 2725.25 1508 2726.28 1508 2726.97 1508 2727.66 1508 2728 1508L2728 1487.36C2727.31 1487.36 2726.28 1487.36 2725.59 1487.36 2713.56 1487.7 2681.59 1489.08 2675.06 1424.04 2669.56 1370.71 2656.16 1348 2629.34 1348 2602.53 1348 2588.44 1370.37 2582.94 1423.36 2576.41 1488.39 2544.44 1487.36 2532.41 1486.67 2531.72 1487.01 2530.69 1487.01 2530 1487.01Z" fill-rule="evenodd"/><path d="M2626 1420 2633 1420 2633 1437 2626 1437Z" fill-rule="evenodd"/><path d="M2626 1451 2633 1451 2633 1468 2626 1468Z" fill-rule="evenodd"/><path d="M2626 1390 2633 1390 2633 1407 2626 1407Z" fill-rule="evenodd"/><path d="M2626 1482 2633 1482 2633 1498 2626 1498Z" fill-rule="evenodd"/></g></svg>