<svg width="96" height="96" xmlns="http://www.w3.org/2000/svg" xmlns:xlink="http://www.w3.org/1999/xlink" xml:space="preserve" overflow="hidden"><g transform="translate(-854 -218)"><path d="M936 256 916 256 916 244 936 244 936 256ZM936 272 916 272 916 260 936 260 936 272ZM936 288 916 288 916 276 936 276 936 288ZM892 288 892 276 912 276 912 288 892 288ZM868 288 868 276 888 276 888 288 868 288ZM868 260 888 260 888 272 868 272 868 260ZM868 244 888 244 888 256 868 256 868 244ZM912 260 912 272 892 272 892 260 912 260ZM912 244 912 256 892 256 892 244 912 244ZM862 238 862 294 942 294 942 238 862 238Z"/></g></svg>