<svg width="96" height="96" xmlns="http://www.w3.org/2000/svg" xmlns:xlink="http://www.w3.org/1999/xlink" xml:space="preserve" overflow="hidden"><g transform="translate(-592 -312)"><path d="M630 341 650 341 650 351 630 351Z"/><path d="M654 341 674 341 674 351 654 351Z"/><path d="M606 341 626 341 626 351 606 351Z"/><path d="M606 355 614 355 614 365 606 365Z"/><path d="M666 355 674 355 674 365 666 365Z"/><path d="M618 355 638 355 638 365 618 365Z"/><path d="M642 355 662 355 662 365 642 365Z"/><path d="M630 369 650 369 650 379 630 379Z"/><path d="M606 369 626 369 626 379 606 379Z"/><path d="M654 369 674 369 674 379 654 379Z"/><path d="M602 327 678 327 678 337 602 337Z"/><path d="M606 383 614 383 614 393 606 393Z"/><path d="M666 383 674 383 674 393 666 393Z"/><path d="M618 383 638 383 638 393 618 393Z"/><path d="M642 383 662 383 662 393 642 393Z"/></g></svg>